<svg width="190" height="40" viewBox="0 0 190 40" fill="none" xmlns="http://www.w3.org/2000/svg">
<g clip-path="url(#clip0_41_417)">
<path d="M163.971 32.7039C163.939 32.5947 163.918 32.4828 163.907 32.3697C163.907 27.9482 163.907 23.5264 163.907 19.104C163.907 18.884 163.896 18.6625 163.907 18.4439C163.926 18.1682 164.052 17.911 164.259 17.728C165.162 16.8394 166.07 15.9565 166.968 15.0623C168.751 13.2815 170.531 11.497 172.308 9.70871C172.975 9.04113 173.646 8.3782 174.319 7.71991C174.419 7.637 174.525 7.56247 174.638 7.49707H189.015C189.057 7.61083 189.085 7.72908 189.1 7.84943C189.1 12.3303 189.1 16.8102 189.1 21.2892C189.106 21.3831 189.121 21.4763 189.143 21.5677V22.0092C188.994 22.1763 188.853 22.3518 188.696 22.5106C188.079 23.1327 187.46 23.752 186.838 24.3685C186.047 25.1498 185.246 25.9214 184.459 26.7055C182.59 28.568 180.724 30.4319 178.86 32.2973C178.721 32.4449 178.548 32.5758 178.392 32.7151L163.971 32.7039ZM178.482 31.1288L178.586 31.2026C178.883 30.8753 179.167 30.5341 179.477 30.2207C180.733 28.9626 181.992 27.7092 183.256 26.4604C183.325 26.396 183.38 26.3173 183.415 26.2297C183.451 26.1421 183.467 26.0478 183.462 25.9534C183.456 21.856 183.456 17.7591 183.462 13.6626C183.462 13.6181 183.462 13.5735 183.462 13.5234C183.47 13.3228 183.41 13.2309 183.174 13.2309C179.031 13.2393 174.888 13.2393 170.745 13.2309C170.65 13.2283 170.555 13.246 170.467 13.2827C170.379 13.3194 170.3 13.3744 170.235 13.444C168.756 14.9296 167.276 16.4096 165.795 17.884C165.747 17.9327 165.703 17.987 165.621 18.079H178.486L178.482 31.1288ZM174.164 25.342V22.7989C174.164 22.4382 174.15 22.4229 173.795 22.4229H168.731C168.664 22.4229 168.592 22.4312 168.532 22.4229C168.323 22.4229 168.254 22.5231 168.254 22.7251C168.259 24.4651 168.259 26.2041 168.254 27.9422C168.254 28.1623 168.344 28.2556 168.552 28.2514C168.809 28.2514 169.065 28.2319 169.323 28.2319C170.843 28.2319 172.362 28.2319 173.88 28.2319C174.159 28.2319 174.159 28.2319 174.159 27.945C174.159 27.0759 174.159 26.2064 174.159 25.3364" fill="#0041CA"/>
<path d="M7.56694 14.1933C7.56694 15.3576 8.32737 16.0135 12.8593 16.8255H12.8621C21.9008 18.448 23.7114 21.1666 23.7114 25.0286C23.7114 27.3893 22.5735 32.8836 12.039 32.8836C8.06414 32.8836 1.22728 31.8488 0.0615682 24.9228L0.00585938 24.5913H6.42212L6.48619 24.7863C7.23547 27.0411 9.11704 28.0466 12.5877 28.0466C16.6725 28.0466 17.1447 26.6651 17.1447 25.6261C17.1447 24.1846 16.2213 23.2961 11.1769 22.4396C2.26207 20.9145 1.03369 17.8478 1.03369 14.7615C1.03369 10.1613 5.20906 7.18787 11.6727 7.18787C21.3061 7.18787 22.6041 12.7964 22.7755 14.515L22.8061 14.8269H16.4079L16.348 14.6208C15.9832 13.3381 15.1197 12.029 11.4916 12.029C9.70059 12.029 7.56694 12.4036 7.56694 14.1933Z" fill="black"/>
<path fill-rule="evenodd" clip-rule="evenodd" d="M71.4761 32.7039H78.7308L69.2631 7.48729H60.819L51.3109 32.7039H58.4012L60.3274 27.0118H69.5904L71.4761 32.7039ZM64.9596 12.3409L68.2798 22.537H61.6393L64.9596 12.3409Z" fill="black"/>
<path d="M88.9366 27.6219H102.503V32.7039H81.8867V7.48729H88.9366V27.6219Z" fill="black"/>
<path d="M105.797 7.48729V32.7039H126.826V27.6219H112.846V22.4646H125.958V17.6876H112.846V12.5679H126.863V7.48729H105.797Z" fill="black"/>
<path fill-rule="evenodd" clip-rule="evenodd" d="M143.038 7.48729C146.263 7.48729 148.77 8.19386 150.559 9.60701C152.348 11.0202 153.243 12.8989 153.243 15.2433C153.243 17.8162 152.355 19.7776 150.578 21.1276C149.794 21.7235 148.869 22.1879 147.803 22.5207L154.851 32.7039H147.063L141.288 23.4966H137.058V32.7039H130.131V7.48729H143.038ZM142.063 18.8352C143.429 18.8352 144.454 18.5803 145.137 18.0706C145.82 17.5608 146.162 16.7456 146.162 15.625C146.162 14.5303 145.82 13.7281 145.137 13.2183C144.454 12.7086 143.429 12.4537 142.063 12.4537H137.063V18.8352H142.063Z" fill="black"/>
<path d="M31.8685 20.1485C31.8685 24.3643 34.7919 27.2584 38.6135 27.2584C41.424 27.2584 43.5883 25.3782 44.488 22.4535H50.5296C49.4906 29.7875 44.7178 32.7387 38.6135 32.7387C30.8853 32.7387 25.5734 27.5954 25.5734 20.1485C25.5734 12.6724 30.8853 7.55692 38.6135 7.55692C43.3265 7.55692 48.1007 9.35771 49.9293 14.6793L44.261 16.5999C43.2554 14.1515 41.2123 13.0373 38.6135 13.0373C34.7919 13.0373 31.8685 15.9327 31.8685 20.1485Z" fill="black"/>
</g>
<defs>
<clipPath id="clip0_41_417">
<rect width="189.143" height="40" fill="white"/>
</clipPath>
</defs>
</svg>
